<mxfile host="app.diagrams.net" modified="2021-03-10T16:46:54.214Z" agent="5.0 (Windows NT 10.0; Win64; x64) AppleWebKit/537.36 (KHTML, like Gecko) Chrome/89.0.4389.82 Safari/537.36 Edg/89.0.774.48" etag="rfVSV5uMU81pwjdqB9ON" version="14.4.6" type="github">
  <diagram id="_UeT4WOGDypy5cC7ZMxa" name="Page-1">
    <mxGraphModel dx="2009" dy="1616" grid="1" gridSize="10" guides="1" tooltips="1" connect="1" arrows="1" fold="1" page="1" pageScale="1" pageWidth="850" pageHeight="1100" math="0" shadow="0">
      <root>
        <mxCell id="0" />
        <mxCell id="1" parent="0" />
        <mxCell id="3qCYc2ClhlNUeKQf3uaD-1" value="Bisnis Manajemen" style="ellipse;whiteSpace=wrap;html=1;align=center;fontStyle=1" parent="1" vertex="1">
          <mxGeometry x="180" y="260" width="100" height="40" as="geometry" />
        </mxCell>
        <mxCell id="3qCYc2ClhlNUeKQf3uaD-2" value="Sistem Informasi" style="ellipse;whiteSpace=wrap;html=1;align=center;fontStyle=1" parent="1" vertex="1">
          <mxGeometry x="290" y="260" width="100" height="40" as="geometry" />
        </mxCell>
        <mxCell id="3qCYc2ClhlNUeKQf3uaD-3" value="Computer Science" style="ellipse;whiteSpace=wrap;html=1;align=center;fontStyle=1" parent="1" vertex="1">
          <mxGeometry x="400" y="260" width="100" height="40" as="geometry" />
        </mxCell>
        <mxCell id="3qCYc2ClhlNUeKQf3uaD-4" value="Prodi" style="whiteSpace=wrap;html=1;align=center;fontStyle=1" parent="1" vertex="1">
          <mxGeometry x="290" y="170" width="100" height="40" as="geometry" />
        </mxCell>
        <mxCell id="3qCYc2ClhlNUeKQf3uaD-8" style="edgeStyle=orthogonalEdgeStyle;rounded=0;orthogonalLoop=1;jettySize=auto;html=1;fontStyle=1" parent="1" source="3qCYc2ClhlNUeKQf3uaD-5" target="3qCYc2ClhlNUeKQf3uaD-9" edge="1">
          <mxGeometry relative="1" as="geometry">
            <mxPoint x="60" y="360" as="targetPoint" />
            <Array as="points">
              <mxPoint x="-20" y="350" />
            </Array>
          </mxGeometry>
        </mxCell>
        <mxCell id="3qCYc2ClhlNUeKQf3uaD-5" value="Dosen" style="whiteSpace=wrap;html=1;align=center;fontStyle=1" parent="1" vertex="1">
          <mxGeometry x="-70" y="170" width="100" height="40" as="geometry" />
        </mxCell>
        <mxCell id="3qCYc2ClhlNUeKQf3uaD-11" style="edgeStyle=orthogonalEdgeStyle;rounded=0;orthogonalLoop=1;jettySize=auto;html=1;entryX=1;entryY=0.5;entryDx=0;entryDy=0;fontStyle=1" parent="1" source="3qCYc2ClhlNUeKQf3uaD-12" target="3qCYc2ClhlNUeKQf3uaD-7" edge="1">
          <mxGeometry relative="1" as="geometry">
            <Array as="points" />
          </mxGeometry>
        </mxCell>
        <mxCell id="3qCYc2ClhlNUeKQf3uaD-29" style="edgeStyle=orthogonalEdgeStyle;rounded=0;orthogonalLoop=1;jettySize=auto;html=1;entryX=1;entryY=0.5;entryDx=0;entryDy=0;fontStyle=1" parent="1" source="3qCYc2ClhlNUeKQf3uaD-6" target="3qCYc2ClhlNUeKQf3uaD-30" edge="1">
          <mxGeometry relative="1" as="geometry">
            <mxPoint x="600" y="210" as="targetPoint" />
          </mxGeometry>
        </mxCell>
        <mxCell id="3qCYc2ClhlNUeKQf3uaD-6" value="Mahasiswa" style="whiteSpace=wrap;html=1;align=center;fontStyle=1" parent="1" vertex="1">
          <mxGeometry x="700" y="170" width="100" height="40" as="geometry" />
        </mxCell>
        <mxCell id="3qCYc2ClhlNUeKQf3uaD-7" value="Makul" style="whiteSpace=wrap;html=1;align=center;fontStyle=1" parent="1" vertex="1">
          <mxGeometry x="290" y="330" width="100" height="40" as="geometry" />
        </mxCell>
        <mxCell id="3qCYc2ClhlNUeKQf3uaD-14" style="edgeStyle=orthogonalEdgeStyle;rounded=0;orthogonalLoop=1;jettySize=auto;html=1;fontStyle=1" parent="1" source="3qCYc2ClhlNUeKQf3uaD-9" target="3qCYc2ClhlNUeKQf3uaD-7" edge="1">
          <mxGeometry relative="1" as="geometry" />
        </mxCell>
        <mxCell id="3qCYc2ClhlNUeKQf3uaD-9" value="Mengajar" style="shape=rhombus;perimeter=rhombusPerimeter;whiteSpace=wrap;html=1;align=center;fontStyle=1" parent="1" vertex="1">
          <mxGeometry x="60" y="320" width="120" height="60" as="geometry" />
        </mxCell>
        <mxCell id="3qCYc2ClhlNUeKQf3uaD-12" value="Memilih" style="shape=rhombus;perimeter=rhombusPerimeter;whiteSpace=wrap;html=1;align=center;fontStyle=1" parent="1" vertex="1">
          <mxGeometry x="550" y="320" width="120" height="60" as="geometry" />
        </mxCell>
        <mxCell id="3qCYc2ClhlNUeKQf3uaD-13" style="edgeStyle=orthogonalEdgeStyle;rounded=0;orthogonalLoop=1;jettySize=auto;html=1;entryX=1;entryY=0.5;entryDx=0;entryDy=0;fontStyle=1" parent="1" source="3qCYc2ClhlNUeKQf3uaD-6" target="3qCYc2ClhlNUeKQf3uaD-12" edge="1">
          <mxGeometry relative="1" as="geometry">
            <mxPoint x="750" y="230" as="sourcePoint" />
            <mxPoint x="390" y="350" as="targetPoint" />
            <Array as="points">
              <mxPoint x="750" y="350" />
            </Array>
          </mxGeometry>
        </mxCell>
        <mxCell id="3qCYc2ClhlNUeKQf3uaD-16" value="Jadwal" style="ellipse;whiteSpace=wrap;html=1;align=center;fontStyle=1" parent="1" vertex="1">
          <mxGeometry x="455" y="420" width="100" height="40" as="geometry" />
        </mxCell>
        <mxCell id="3qCYc2ClhlNUeKQf3uaD-17" value="Attendance" style="ellipse;whiteSpace=wrap;html=1;align=center;fontStyle=1" parent="1" vertex="1">
          <mxGeometry x="235" y="420" width="100" height="40" as="geometry" />
        </mxCell>
        <mxCell id="3qCYc2ClhlNUeKQf3uaD-19" value="Assignment" style="ellipse;whiteSpace=wrap;html=1;align=center;fontStyle=1" parent="1" vertex="1">
          <mxGeometry x="345" y="420" width="100" height="40" as="geometry" />
        </mxCell>
        <mxCell id="3qCYc2ClhlNUeKQf3uaD-20" value="Forum" style="ellipse;whiteSpace=wrap;html=1;align=center;fontStyle=1" parent="1" vertex="1">
          <mxGeometry x="125" y="420" width="100" height="40" as="geometry" />
        </mxCell>
        <mxCell id="3qCYc2ClhlNUeKQf3uaD-22" value="" style="endArrow=none;html=1;rounded=0;entryX=0.5;entryY=0;entryDx=0;entryDy=0;exitX=0.5;exitY=1;exitDx=0;exitDy=0;fontStyle=1" parent="1" source="3qCYc2ClhlNUeKQf3uaD-7" target="3qCYc2ClhlNUeKQf3uaD-20" edge="1">
          <mxGeometry relative="1" as="geometry">
            <mxPoint x="330" y="330" as="sourcePoint" />
            <mxPoint x="490" y="330" as="targetPoint" />
          </mxGeometry>
        </mxCell>
        <mxCell id="3qCYc2ClhlNUeKQf3uaD-23" value="" style="endArrow=none;html=1;rounded=0;entryX=0.5;entryY=0;entryDx=0;entryDy=0;exitX=0.5;exitY=1;exitDx=0;exitDy=0;fontStyle=1" parent="1" source="3qCYc2ClhlNUeKQf3uaD-7" target="3qCYc2ClhlNUeKQf3uaD-17" edge="1">
          <mxGeometry relative="1" as="geometry">
            <mxPoint x="330" y="330" as="sourcePoint" />
            <mxPoint x="490" y="330" as="targetPoint" />
          </mxGeometry>
        </mxCell>
        <mxCell id="3qCYc2ClhlNUeKQf3uaD-24" value="" style="endArrow=none;html=1;rounded=0;entryX=0.5;entryY=0;entryDx=0;entryDy=0;exitX=0.5;exitY=1;exitDx=0;exitDy=0;fontStyle=1" parent="1" source="3qCYc2ClhlNUeKQf3uaD-7" target="3qCYc2ClhlNUeKQf3uaD-19" edge="1">
          <mxGeometry relative="1" as="geometry">
            <mxPoint x="330" y="330" as="sourcePoint" />
            <mxPoint x="490" y="330" as="targetPoint" />
          </mxGeometry>
        </mxCell>
        <mxCell id="3qCYc2ClhlNUeKQf3uaD-25" value="" style="endArrow=none;html=1;rounded=0;entryX=0.5;entryY=0;entryDx=0;entryDy=0;exitX=0.5;exitY=1;exitDx=0;exitDy=0;fontStyle=1" parent="1" source="3qCYc2ClhlNUeKQf3uaD-7" target="3qCYc2ClhlNUeKQf3uaD-16" edge="1">
          <mxGeometry relative="1" as="geometry">
            <mxPoint x="330" y="330" as="sourcePoint" />
            <mxPoint x="490" y="330" as="targetPoint" />
          </mxGeometry>
        </mxCell>
        <mxCell id="3qCYc2ClhlNUeKQf3uaD-26" value="" style="endArrow=none;html=1;rounded=0;exitX=0.5;exitY=1;exitDx=0;exitDy=0;entryX=0.5;entryY=0;entryDx=0;entryDy=0;fontStyle=1" parent="1" source="3qCYc2ClhlNUeKQf3uaD-4" target="3qCYc2ClhlNUeKQf3uaD-1" edge="1">
          <mxGeometry relative="1" as="geometry">
            <mxPoint x="330" y="360" as="sourcePoint" />
            <mxPoint x="230" y="290" as="targetPoint" />
          </mxGeometry>
        </mxCell>
        <mxCell id="3qCYc2ClhlNUeKQf3uaD-27" value="" style="endArrow=none;html=1;rounded=0;fontStyle=1" parent="1" source="3qCYc2ClhlNUeKQf3uaD-4" edge="1">
          <mxGeometry relative="1" as="geometry">
            <mxPoint x="340" y="260" as="sourcePoint" />
            <mxPoint x="340" y="260" as="targetPoint" />
          </mxGeometry>
        </mxCell>
        <mxCell id="3qCYc2ClhlNUeKQf3uaD-28" value="" style="endArrow=none;html=1;rounded=0;entryX=0.5;entryY=1;entryDx=0;entryDy=0;exitX=0.5;exitY=0;exitDx=0;exitDy=0;fontStyle=1" parent="1" source="3qCYc2ClhlNUeKQf3uaD-3" target="3qCYc2ClhlNUeKQf3uaD-4" edge="1">
          <mxGeometry relative="1" as="geometry">
            <mxPoint x="450" y="290" as="sourcePoint" />
            <mxPoint x="490" y="360" as="targetPoint" />
          </mxGeometry>
        </mxCell>
        <mxCell id="3qCYc2ClhlNUeKQf3uaD-31" style="edgeStyle=orthogonalEdgeStyle;rounded=0;orthogonalLoop=1;jettySize=auto;html=1;entryX=1;entryY=0.5;entryDx=0;entryDy=0;fontStyle=1" parent="1" source="3qCYc2ClhlNUeKQf3uaD-30" target="3qCYc2ClhlNUeKQf3uaD-4" edge="1">
          <mxGeometry relative="1" as="geometry" />
        </mxCell>
        <mxCell id="3qCYc2ClhlNUeKQf3uaD-30" value="Memilih" style="shape=rhombus;perimeter=rhombusPerimeter;whiteSpace=wrap;html=1;align=center;fontStyle=1" parent="1" vertex="1">
          <mxGeometry x="470" y="160" width="120" height="60" as="geometry" />
        </mxCell>
        <mxCell id="3qCYc2ClhlNUeKQf3uaD-36" value="Password" style="ellipse;whiteSpace=wrap;html=1;align=center;fontStyle=1" parent="1" vertex="1">
          <mxGeometry x="840" y="240" width="100" height="40" as="geometry" />
        </mxCell>
        <mxCell id="3qCYc2ClhlNUeKQf3uaD-37" value="Nama" style="ellipse;whiteSpace=wrap;html=1;align=center;fontStyle=1" parent="1" vertex="1">
          <mxGeometry x="840" y="170" width="100" height="40" as="geometry" />
        </mxCell>
        <mxCell id="3qCYc2ClhlNUeKQf3uaD-38" value="Nim" style="ellipse;whiteSpace=wrap;html=1;align=center;fontStyle=1" parent="1" vertex="1">
          <mxGeometry x="840" y="100" width="100" height="40" as="geometry" />
        </mxCell>
        <mxCell id="3qCYc2ClhlNUeKQf3uaD-39" value="Password" style="ellipse;whiteSpace=wrap;html=1;align=center;fontStyle=1" parent="1" vertex="1">
          <mxGeometry x="-210" y="240" width="100" height="40" as="geometry" />
        </mxCell>
        <mxCell id="3qCYc2ClhlNUeKQf3uaD-40" value="Nama" style="ellipse;whiteSpace=wrap;html=1;align=center;fontStyle=1" parent="1" vertex="1">
          <mxGeometry x="-210" y="170" width="100" height="40" as="geometry" />
        </mxCell>
        <mxCell id="3qCYc2ClhlNUeKQf3uaD-41" value="Nim" style="ellipse;whiteSpace=wrap;html=1;align=center;fontStyle=1" parent="1" vertex="1">
          <mxGeometry x="-210" y="100" width="100" height="40" as="geometry" />
        </mxCell>
        <mxCell id="3qCYc2ClhlNUeKQf3uaD-43" style="edgeStyle=orthogonalEdgeStyle;rounded=0;orthogonalLoop=1;jettySize=auto;html=1;entryX=0.5;entryY=0;entryDx=0;entryDy=0;fontStyle=1" parent="1" target="3qCYc2ClhlNUeKQf3uaD-5" edge="1">
          <mxGeometry relative="1" as="geometry">
            <mxPoint x="290" y="100" as="sourcePoint" />
          </mxGeometry>
        </mxCell>
        <mxCell id="3qCYc2ClhlNUeKQf3uaD-44" style="edgeStyle=orthogonalEdgeStyle;rounded=0;orthogonalLoop=1;jettySize=auto;html=1;entryX=0.5;entryY=0;entryDx=0;entryDy=0;fontStyle=1" parent="1" target="3qCYc2ClhlNUeKQf3uaD-6" edge="1">
          <mxGeometry relative="1" as="geometry">
            <mxPoint x="390" y="100" as="sourcePoint" />
          </mxGeometry>
        </mxCell>
        <mxCell id="3qCYc2ClhlNUeKQf3uaD-45" style="edgeStyle=orthogonalEdgeStyle;rounded=0;orthogonalLoop=1;jettySize=auto;html=1;entryX=0.5;entryY=0;entryDx=0;entryDy=0;fontStyle=1" parent="1" target="3qCYc2ClhlNUeKQf3uaD-4" edge="1">
          <mxGeometry relative="1" as="geometry">
            <mxPoint x="340" y="120" as="sourcePoint" />
          </mxGeometry>
        </mxCell>
        <mxCell id="3qCYc2ClhlNUeKQf3uaD-46" value="Membuat" style="shape=rhombus;perimeter=rhombusPerimeter;whiteSpace=wrap;html=1;align=center;fontStyle=1" parent="1" vertex="1">
          <mxGeometry x="280" y="70" width="120" height="60" as="geometry" />
        </mxCell>
        <mxCell id="3qCYc2ClhlNUeKQf3uaD-48" value="" style="endArrow=none;html=1;rounded=0;exitX=1;exitY=0.5;exitDx=0;exitDy=0;entryX=0;entryY=0.5;entryDx=0;entryDy=0;fontStyle=1" parent="1" source="3qCYc2ClhlNUeKQf3uaD-41" target="3qCYc2ClhlNUeKQf3uaD-5" edge="1">
          <mxGeometry relative="1" as="geometry">
            <mxPoint x="330" y="220" as="sourcePoint" />
            <mxPoint x="490" y="220" as="targetPoint" />
          </mxGeometry>
        </mxCell>
        <mxCell id="3qCYc2ClhlNUeKQf3uaD-49" value="" style="endArrow=none;html=1;rounded=0;entryX=1;entryY=0.5;entryDx=0;entryDy=0;exitX=0;exitY=0.5;exitDx=0;exitDy=0;fontStyle=1" parent="1" source="3qCYc2ClhlNUeKQf3uaD-5" target="3qCYc2ClhlNUeKQf3uaD-40" edge="1">
          <mxGeometry relative="1" as="geometry">
            <mxPoint x="330" y="220" as="sourcePoint" />
            <mxPoint x="490" y="220" as="targetPoint" />
          </mxGeometry>
        </mxCell>
        <mxCell id="3qCYc2ClhlNUeKQf3uaD-50" value="" style="endArrow=none;html=1;rounded=0;entryX=1;entryY=0.5;entryDx=0;entryDy=0;exitX=0;exitY=0.5;exitDx=0;exitDy=0;fontStyle=1" parent="1" source="3qCYc2ClhlNUeKQf3uaD-5" target="3qCYc2ClhlNUeKQf3uaD-39" edge="1">
          <mxGeometry relative="1" as="geometry">
            <mxPoint x="-60" y="200" as="sourcePoint" />
            <mxPoint x="-100" y="200" as="targetPoint" />
          </mxGeometry>
        </mxCell>
        <mxCell id="3qCYc2ClhlNUeKQf3uaD-51" value="" style="endArrow=none;html=1;rounded=0;entryX=0;entryY=0.5;entryDx=0;entryDy=0;exitX=1;exitY=0.5;exitDx=0;exitDy=0;fontStyle=1" parent="1" source="3qCYc2ClhlNUeKQf3uaD-6" target="3qCYc2ClhlNUeKQf3uaD-37" edge="1">
          <mxGeometry relative="1" as="geometry">
            <mxPoint x="-50" y="210" as="sourcePoint" />
            <mxPoint x="-90" y="210" as="targetPoint" />
          </mxGeometry>
        </mxCell>
        <mxCell id="3qCYc2ClhlNUeKQf3uaD-52" value="" style="endArrow=none;html=1;rounded=0;entryX=0;entryY=0.5;entryDx=0;entryDy=0;exitX=1;exitY=0.5;exitDx=0;exitDy=0;fontStyle=1" parent="1" source="3qCYc2ClhlNUeKQf3uaD-6" target="3qCYc2ClhlNUeKQf3uaD-36" edge="1">
          <mxGeometry relative="1" as="geometry">
            <mxPoint x="790" y="190" as="sourcePoint" />
            <mxPoint x="850" y="200" as="targetPoint" />
          </mxGeometry>
        </mxCell>
        <mxCell id="3qCYc2ClhlNUeKQf3uaD-53" value="" style="endArrow=none;html=1;rounded=0;entryX=0;entryY=0.5;entryDx=0;entryDy=0;exitX=1;exitY=0.5;exitDx=0;exitDy=0;fontStyle=1" parent="1" source="3qCYc2ClhlNUeKQf3uaD-6" target="3qCYc2ClhlNUeKQf3uaD-38" edge="1">
          <mxGeometry relative="1" as="geometry">
            <mxPoint x="820" y="210" as="sourcePoint" />
            <mxPoint x="860" y="210" as="targetPoint" />
          </mxGeometry>
        </mxCell>
        <mxCell id="zyws-jxNzfLWqwZfDbNh-4" style="edgeStyle=orthogonalEdgeStyle;rounded=0;orthogonalLoop=1;jettySize=auto;html=1;entryX=0.5;entryY=0;entryDx=0;entryDy=0;" edge="1" parent="1" source="3qCYc2ClhlNUeKQf3uaD-54" target="3qCYc2ClhlNUeKQf3uaD-46">
          <mxGeometry relative="1" as="geometry" />
        </mxCell>
        <mxCell id="3qCYc2ClhlNUeKQf3uaD-54" value="Akun" style="whiteSpace=wrap;html=1;align=center;fontStyle=1" parent="1" vertex="1">
          <mxGeometry x="570" y="10" width="100" height="40" as="geometry" />
        </mxCell>
        <mxCell id="zyws-jxNzfLWqwZfDbNh-1" style="edgeStyle=orthogonalEdgeStyle;rounded=0;orthogonalLoop=1;jettySize=auto;html=1;fontStyle=1" edge="1" parent="1" source="3qCYc2ClhlNUeKQf3uaD-55" target="zyws-jxNzfLWqwZfDbNh-2">
          <mxGeometry relative="1" as="geometry">
            <mxPoint x="320" y="-20" as="targetPoint" />
          </mxGeometry>
        </mxCell>
        <mxCell id="3qCYc2ClhlNUeKQf3uaD-55" value="Admin" style="whiteSpace=wrap;html=1;align=center;fontStyle=1" parent="1" vertex="1">
          <mxGeometry x="100" y="-40" width="100" height="40" as="geometry" />
        </mxCell>
        <mxCell id="zyws-jxNzfLWqwZfDbNh-3" style="edgeStyle=orthogonalEdgeStyle;rounded=0;orthogonalLoop=1;jettySize=auto;html=1;entryX=0.5;entryY=0;entryDx=0;entryDy=0;fontStyle=1" edge="1" parent="1" source="zyws-jxNzfLWqwZfDbNh-2" target="3qCYc2ClhlNUeKQf3uaD-54">
          <mxGeometry relative="1" as="geometry" />
        </mxCell>
        <mxCell id="zyws-jxNzfLWqwZfDbNh-2" value="Mengelola" style="shape=rhombus;perimeter=rhombusPerimeter;whiteSpace=wrap;html=1;align=center;fontStyle=1" vertex="1" parent="1">
          <mxGeometry x="280" y="-50" width="120" height="60" as="geometry" />
        </mxCell>
      </root>
    </mxGraphModel>
  </diagram>
</mxfile>
